# xmcd
#
# Track frame offsets: 
#        150
#        19629
#        36980
#        50947
#        72139
#        93196
#        104953
#        124948
#        141018
#        164684
#        181348
#        204193
#
# Disc length: 2858 seconds
#
# Revision: 0
# Processed by: cddbd v1.5.2PL0 Copyright (c) Steve Scherf et al.
# Submitted via: ExactAudioCopy v0.95b4
#
DISCID=af0b280c
DTITLE=Johnny Shines - Too Wet To Plow
DYEAR=1996
DGENRE=Blues
TTITLE0=Too Wet To Plow
TTITLE1=Travelling Back Home
TTITLE2=Hot Tamale
TTITLE3=Moanin' The Blues
TTITLE4=Red Sun
TTITLE5=Winding Mind
TTITLE6=You Better Turn Around
TTITLE7=The Wind Is Blowin'
TTITLE8=Trouble's All I See
TTITLE9=30 Days In Jail
TTITLE10=Pay Day Woman
TTITLE11=Epilog
EXTD=
EXTT0=
EXTT1=
EXTT2=
EXTT3=
EXTT4=
EXTT5=
EXTT6=
EXTT7=
EXTT8=
EXTT9=
EXTT10=
EXTT11=
PLAYORDER=
